<svg width="25" height="24" viewBox="0 0 25 24" fill="none" xmlns="http://www.w3.org/2000/svg">
<path d="M23.5016 23.2621C23.436 23.2629 23.371 23.2503 23.3107 23.2254C23.2504 23.2005 23.1962 23.1639 23.1516 23.1175L0.15155 0.931042C0.105588 0.886705 0.0691253 0.834009 0.0442505 0.77608C0.0193757 0.718151 0.0065918 0.65603 0.0065918 0.593328C0.0065918 0.530626 0.0193757 0.468504 0.0442505 0.410575C0.0691253 0.352646 0.105588 0.29995 0.15155 0.255613C0.197513 0.211276 0.252081 0.175985 0.312134 0.15199C0.372187 0.127995 0.436555 0.115723 0.501556 0.115723C0.566557 0.115723 0.630926 0.127995 0.690979 0.15199C0.751032 0.175985 0.8056 0.211276 0.851562 0.255613L23.8516 22.4421C23.8994 22.4854 23.9375 22.5376 23.9636 22.5957C23.9896 22.6537 24.0031 22.7165 24.0031 22.7798C24.0031 22.8431 23.9896 22.9059 23.9636 22.964C23.9375 23.0221 23.8994 23.0742 23.8516 23.1175C23.8069 23.1639 23.7527 23.2005 23.6924 23.2254C23.6321 23.2503 23.5671 23.2629 23.5016 23.2621Z" fill="black"/>
<path d="M0.501526 23.2621C0.43595 23.2629 0.370947 23.2503 0.310669 23.2254C0.250391 23.2005 0.196166 23.1639 0.15152 23.1175C0.103689 23.0742 0.0655805 23.0221 0.0395203 22.964C0.01346 22.9059 0 22.8431 0 22.7798C0 22.7165 0.01346 22.6537 0.0395203 22.5957C0.0655805 22.5376 0.103689 22.4854 0.15152 22.4421L23.1515 0.255613C23.1975 0.211276 23.2521 0.175985 23.3121 0.15199C23.3722 0.127995 23.4365 0.115723 23.5015 0.115723C23.5665 0.115723 23.6309 0.127995 23.6909 0.15199C23.751 0.175985 23.8056 0.211276 23.8515 0.255613C23.8975 0.29995 23.934 0.352646 23.9588 0.410575C23.9837 0.468504 23.9965 0.530626 23.9965 0.593328C23.9965 0.65603 23.9837 0.718151 23.9588 0.77608C23.934 0.834009 23.8975 0.886705 23.8515 0.931042L0.851532 23.1175C0.806886 23.1639 0.752661 23.2005 0.692383 23.2254C0.632105 23.2503 0.567102 23.2629 0.501526 23.2621Z" fill="black"/>
</svg>
