<?xml version="1.0" standalone="no"?>
<!DOCTYPE svg PUBLIC "-//W3C//DTD SVG 20010904//EN"
 "http://www.w3.org/TR/2001/REC-SVG-20010904/DTD/svg10.dtd">
<svg version="1.0" xmlns="http://www.w3.org/2000/svg"
 width="104.000000pt" height="22.000000pt" viewBox="0 0 104.000000 22.000000"
 preserveAspectRatio="xMidYMid meet">

<g transform="translate(0.000000,22.000000) scale(0.100000,-0.100000)"
fill="#000000" stroke="none">
<path d="M910 135 c0 -78 2 -85 20 -85 14 0 20 7 20 22 l0 21 23 -21 c23 -22
57 -30 57 -14 0 5 -9 17 -20 27 -25 23 -25 33 2 62 20 21 20 23 3 23 -10 0
-29 -10 -42 -22 l-23 -21 0 46 c0 40 -3 47 -20 47 -18 0 -20 -7 -20 -85z"/>
<path d="M50 173 c-55 -20 -67 -78 -24 -112 33 -26 55 -26 85 -2 30 24 18 39
-16 21 -28 -15 -55 -1 -55 30 0 31 27 45 55 30 34 -18 46 -3 16 21 -24 19 -35
22 -61 12z"/>
<path d="M169 161 c-30 -24 -18 -39 16 -21 19 10 28 11 37 2 9 -9 8 -12 -3
-15 -64 -18 -74 -24 -77 -44 -4 -27 30 -47 61 -37 12 4 33 6 46 5 23 -3 24 -1
19 50 -8 76 -49 101 -99 60z m55 -75 c-7 -17 -44 -23 -44 -6 0 10 41 31 48 25
1 -1 0 -10 -4 -19z"/>
<path d="M298 169 c-33 -19 -15 -69 23 -69 20 0 35 -18 25 -28 -4 -3 -16 -1
-26 6 -26 16 -40 15 -40 -3 0 -35 94 -44 106 -10 4 10 10 9 26 -7 11 -11 26
-17 35 -14 8 3 28 6 44 6 28 0 29 1 29 50 0 42 -4 52 -25 66 -28 18 -72 12
-82 -12 -8 -22 5 -30 28 -16 11 7 24 10 30 7 15 -10 0 -25 -26 -25 -13 0 -30
-7 -38 -15 -13 -13 -16 -13 -27 0 -7 8 -21 15 -31 15 -18 0 -35 17 -26 26 3 3
15 0 27 -6 32 -17 48 3 19 24 -27 18 -46 20 -71 5z m174 -91 c-6 -6 -19 -7
-29 -4 -16 7 -16 9 7 21 26 14 41 2 22 -17z"/>
<path d="M606 173 c-4 -4 -22 -6 -41 -5 l-35 3 0 -86 c0 -84 0 -85 25 -85 20
0 25 5 25 25 0 22 4 24 23 20 59 -15 97 77 48 117 -25 20 -34 22 -45 11z m24
-64 c0 -37 -27 -50 -46 -24 -18 24 -17 30 1 49 22 22 45 9 45 -25z"/>
<path d="M709 161 c-30 -24 -18 -39 16 -21 19 10 28 11 37 2 9 -9 8 -12 -3
-15 -64 -18 -74 -24 -77 -44 -4 -27 30 -47 61 -37 12 4 33 6 46 5 23 -3 24 -1
19 50 -8 76 -49 101 -99 60z m55 -75 c-7 -17 -44 -23 -44 -6 0 10 41 31 48 25
1 -1 0 -10 -4 -19z"/>
<path d="M820 109 c0 -52 2 -59 20 -59 17 0 20 7 20 39 0 31 4 41 20 46 36 11
23 33 -20 33 l-40 1 0 -60z"/>
</g>
</svg>
