<?xml version="1.0" standalone="no"?>
<!DOCTYPE svg PUBLIC "-//W3C//DTD SVG 20010904//EN"
 "http://www.w3.org/TR/2001/REC-SVG-20010904/DTD/svg10.dtd">
<svg version="1.0" xmlns="http://www.w3.org/2000/svg"
 width="167.000000pt" height="36.000000pt" viewBox="0 0 167.000000 36.000000"
 preserveAspectRatio="xMidYMid meet">

<g transform="translate(0.000000,36.000000) scale(0.100000,-0.100000)"
fill="#000000" stroke="none">
<path d="M1460 220 l0 -140 30 0 c27 0 30 3 30 29 0 44 15 46 46 6 21 -28 33
-35 60 -35 19 0 34 3 34 6 0 3 -19 29 -41 56 l-42 49 44 45 43 44 -34 0 c-26
0 -43 -9 -72 -37 l-38 -37 0 77 0 77 -30 0 -30 0 0 -140z"/>
<path d="M60 272 c-104 -52 -62 -202 57 -202 36 0 89 32 96 59 4 18 1 21 -23
21 -15 0 -33 -7 -40 -16 -20 -23 -62 -13 -80 19 -13 24 -13 30 0 55 18 31 60
41 80 18 7 -9 25 -16 40 -16 24 0 27 3 23 21 -7 26 -59 59 -93 59 -14 0 -41
-8 -60 -18z"/>
<path d="M285 278 c-22 -12 -45 -37 -45 -50 0 -13 54 -8 73 7 23 17 47 9 47
-15 0 -13 -11 -19 -45 -23 -55 -6 -85 -30 -85 -67 0 -37 24 -54 73 -53 23 1
62 2 86 2 l44 0 -5 82 c-4 74 -8 85 -32 106 -29 25 -77 30 -111 11z m78 -128
c-7 -28 -29 -43 -53 -35 -29 9 -25 32 8 43 41 16 51 14 45 -8z"/>
<path d="M476 269 c-21 -16 -26 -28 -24 -53 3 -28 9 -33 53 -48 50 -16 69 -40
41 -51 -9 -4 -22 0 -30 8 -16 16 -76 21 -76 6 0 -5 9 -19 19 -32 16 -20 28
-24 76 -24 47 0 60 4 75 23 l19 22 26 -26 c22 -22 32 -25 63 -20 20 3 55 6 77
6 l40 -1 -5 87 c-4 76 -8 88 -30 106 -43 35 -150 7 -150 -39 0 -18 48 -17 66
2 18 17 24 18 43 6 21 -13 5 -41 -23 -41 -34 0 -79 -18 -94 -38 -11 -15 -13
-14 -27 5 -8 11 -35 26 -60 32 -34 9 -46 16 -43 28 4 23 23 27 41 8 20 -19 67
-20 67 -1 0 23 -50 56 -85 56 -18 0 -44 -10 -59 -21z m294 -119 c0 -22 -34
-44 -57 -36 -22 9 -11 39 17 47 38 11 40 10 40 -11z"/>
<path d="M952 274 c-12 -8 -22 -10 -22 -5 0 6 -16 11 -35 11 l-35 0 0 -140 0
-140 35 0 35 0 0 51 c0 46 1 49 16 35 25 -26 72 -20 105 13 25 25 29 37 29 81
0 44 -4 56 -29 81 -33 32 -65 37 -99 13z m50 -51 c22 -20 24 -66 2 -87 -49
-49 -114 34 -67 86 20 22 41 23 65 1z"/>
<path d="M1160 283 c-24 -9 -50 -35 -50 -50 0 -18 48 -17 66 2 12 11 20 12 35
5 38 -21 25 -33 -44 -45 -41 -7 -77 -35 -77 -60 0 -9 12 -27 26 -41 21 -22 31
-25 62 -20 20 3 55 6 77 6 l40 -1 -5 85 c-4 60 -10 90 -21 101 -17 18 -84 29
-109 18z m70 -133 c0 -22 -34 -44 -57 -36 -22 9 -11 39 17 47 38 11 40 10 40
-11z"/>
<path d="M1402 274 c-12 -8 -22 -10 -22 -5 0 6 -16 11 -35 11 l-35 0 0 -100 0
-100 35 0 35 0 0 60 c0 57 2 62 30 78 22 12 30 24 30 45 0 31 -7 33 -38 11z"/>
</g>
</svg>
