<svg width="167" height="36" viewBox="0 0 167 36" fill="none" xmlns="http://www.w3.org/2000/svg">
<g clip-path="url(#clip0)">
<path d="M21.752 21.0649H15.9874C15.4941 23.3212 13.4477 24.2256 11.5749 24.2256C8.96209 24.2256 6.13917 22.4078 6.13917 17.9865C6.13917 13.5653 9.04431 11.8206 11.5749 11.8206C13.3746 11.8206 15.2109 12.4509 15.9509 14.8259H21.7612C21.0668 9.92971 16.5721 7.16188 11.5749 7.16188C5.56362 7.15275 0 10.9071 0 17.9774C0 24.9746 5.56362 28.8843 11.5749 28.8843C16.5995 28.887 21.0212 26.1987 21.752 21.0649Z" fill="black"/>
<path d="M42.5677 22.6817V16.2052C42.5677 9.96617 39.1327 7.07959 33.2859 7.07959C27.3934 7.07959 24.2873 10.2767 24.0041 14.1955H29.9697C30.0519 12.4143 31.4405 11.4277 33.2859 11.4277C35.1313 11.4277 36.4377 12.3777 36.4377 14.0768C36.4377 15.8124 34.9212 15.6206 32.144 16.0134C29.321 16.4062 22.6611 16.8446 22.6611 22.6543C22.6611 26.4087 25.8952 28.8203 30.1889 28.8203C33.2585 28.8203 35.4237 27.8702 36.5291 25.5774H36.5656V25.8515C36.5656 26.4818 36.6478 27.5871 36.8945 28.2265H43.0702C42.5677 27.0664 42.5677 24.262 42.5677 22.6817ZM32.144 24.737C29.8509 24.737 28.9556 23.6317 28.9556 22.4808C28.9556 21.2932 29.9331 20.3432 32.5916 19.8317C34.638 19.4389 36.0632 18.8451 36.6387 17.7764V18.9639C36.6341 22.7183 34.5512 24.737 32.1394 24.737H32.144Z" fill="black"/>
<path d="M56.3762 13.8303H62.1865C61.5744 9.56434 58.4226 7.07056 53.1878 7.07056C47.9531 7.07056 44.646 10.0302 44.646 13.6293C44.646 16.9087 46.8112 18.5255 51.315 19.5943C55.5266 20.5808 56.3488 20.9371 56.3488 22.5539C56.3488 23.7414 55.4078 24.5727 53.5259 24.5727C51.6439 24.5727 50.5842 23.5496 50.2918 21.8049H44.0796C44.7374 26.5458 47.9622 28.9208 53.5259 28.9208C59.6559 28.9208 62.6433 25.879 62.6433 22.2434C62.6433 19.2015 60.9257 17.2649 56.3031 16.2327C51.6439 15.2096 50.575 14.6889 50.575 13.3096C50.575 12.2865 51.5526 11.3365 53.1878 11.3365C54.8231 11.3365 56.0016 12.2134 56.3762 13.8303Z" fill="black"/>
<path d="M83.2806 22.6817V16.2052C83.2806 9.96617 79.8456 7.07959 73.9988 7.07959C68.1063 7.07959 65.0002 10.2767 64.717 14.1955H70.6826C70.7648 12.4143 72.1534 11.4277 73.9988 11.4277C75.8442 11.4277 77.1506 12.3777 77.1506 14.0768C77.1506 15.8124 75.6341 15.6206 72.8568 16.0134C70.0339 16.4062 63.374 16.8446 63.374 22.6543C63.374 26.4087 66.6081 28.8203 70.9018 28.8203C73.9714 28.8203 76.1366 27.8702 77.242 25.5774H77.2785V25.8515C77.2785 26.4818 77.3607 27.5871 77.6074 28.2265H83.774C83.2806 27.0664 83.2806 24.262 83.2806 22.6817ZM72.8568 24.737C70.5638 24.737 69.6685 23.6317 69.6685 22.4808C69.6685 21.2932 70.646 20.3432 73.3045 19.8317C75.3509 19.4389 76.776 18.8451 77.3516 17.7764V18.9639C77.3516 22.7183 75.2732 24.737 72.8568 24.737Z" fill="black"/>
<path d="M99.1312 7.07056C96.3083 7.07056 93.6132 8.80616 92.6723 10.8615V7.78581H85.9667V36.003H92.6357V25.0139H92.6814C93.7868 27.6265 96.2352 28.9693 99.1403 28.9693C104.128 28.9693 108.422 24.7033 108.422 17.9802C108.413 11.2999 104.119 7.07056 99.1312 7.07056ZM97.0482 24.0246C94.472 24.0246 92.0145 22.0059 92.0145 17.9774L92.0602 17.1827C92.3434 13.7024 94.6364 12.0033 97.0482 12.0033C99.588 12.0033 102.036 14.2139 102.036 17.9683C102.041 21.7775 99.5788 24.0246 97.0482 24.0246Z" fill="black"/>
<path d="M129.224 22.6817V16.2052C129.224 9.96617 125.789 7.07959 119.942 7.07959C114.05 7.07959 110.944 10.2767 110.66 14.1955H116.626C116.708 12.4143 118.097 11.4277 119.933 11.4277C121.769 11.4277 123.085 12.3777 123.085 14.0768C123.085 15.8124 121.568 15.6206 118.791 16.0134C115.968 16.4062 109.308 16.8446 109.308 22.6543C109.308 26.4087 112.542 28.8203 116.836 28.8203C119.906 28.8203 122.071 27.8702 123.176 25.5774H123.213V25.8515C123.213 26.4818 123.295 27.5871 123.542 28.2265H129.722C129.224 27.0664 129.224 24.262 129.224 22.6817ZM118.8 24.737C116.507 24.737 115.612 23.6317 115.612 22.4808C115.612 21.2932 116.589 20.3432 119.248 19.8317C121.294 19.4389 122.719 18.8451 123.295 17.7764V18.9639C123.295 22.7183 121.212 24.737 118.8 24.737Z" fill="black"/>
<path d="M143.978 13.3581V7.23779C139.849 7.27433 138.414 9.4484 137.72 11.2662H137.638V7.78588H131.549V28.2112H137.843V18.574C137.839 15.5294 139.648 13.0447 143.978 13.3581Z" fill="black"/>
<path d="M159.554 28.2174H167L157.755 16.7168L166.63 7.78573H159.102L151.903 15.6507V0.00292969H145.609V28.2201H151.903V22.6479L153.74 20.7936L159.554 28.2174Z" fill="black"/>
</g>
<defs>
<clipPath id="clip0">
<rect width="167" height="36" fill="white" transform="translate(0 0.000244141)"/>
</clipPath>
</defs>
</svg>
